<?xml version="1.0" encoding="UTF-8" standalone="no"?>
<!DOCTYPE svg PUBLIC "-//W3C//DTD SVG 1.0//EN" "http://www.w3.org/TR/2001/REC-SVG-20010904/DTD/svg10.dtd">
<!-- 由 Microsoft Visio 11.0, SVG Export, v1.0 生成 dw.svg Page-1 -->
<svg xmlns="http://www.w3.org/2000/svg" xmlns:v="http://schemas.microsoft.com/visio/2003/SVGExtensions/" width="15.1575in"
		height="11.6929in" viewBox="0 0 1091.34 841.89" xml:space="preserve" color-interpolation-filters="sRGB" class="st14">
	<v:documentProperties v:langID="2052" v:metric="true" v:viewMarkup="false"/>

	<style type="text/css">
	<![CDATA[
		.st1 {fill:#ffffff;stroke:#729fdc;stroke-linecap:round;stroke-linejoin:round;stroke-width:1.2}
		.st2 {fill:#ffffff}
		.st3 {stroke:#98d0de;stroke-linecap:round;stroke-linejoin:round;stroke-width:2.16}
		.st4 {visibility:visible}
		.st5 {stroke:#ffffff;stroke-linecap:round;stroke-linejoin:round;stroke-width:2.16}
		.st6 {fill:#729fdc}
		.st7 {fill:#000000;font-family:宋体;font-size:0.666664em}
		.st8 {marker-end:url(#mrkr4-53);stroke:#729fdc;stroke-linecap:round;stroke-linejoin:round;stroke-width:4.08}
		.st9 {fill:#729fdc;fill-opacity:1;stroke:#729fdc;stroke-opacity:1;stroke-width:0.61818181818182}
		.st10 {fill:none;stroke:none;stroke-linecap:round;stroke-linejoin:round;stroke-width:0.72}
		.st11 {fill:#000000;font-family:宋体;font-size:0.666664em;font-weight:bold}
		.st12 {font-size:1em}
		.st13 {fill:#ffffff;stroke:#000000;stroke-linecap:round;stroke-linejoin:round;stroke-width:0.24}
		.st14 {fill:none;fill-rule:evenodd;font-size:12;overflow:visible;stroke-linecap:square;stroke-miterlimit:3}
		.st15 {stroke:#000000;stroke-linecap:round;stroke-linejoin:round;stroke-width:0.24}
	]]>
	</style>

	<defs id="Masters">
		<symbol id="master7" v:mID="7" class="st14">
			<title>并行模式</title>
			<g id="master-shape5-201" v:mID="5" v:groupContext="shape" v:layerMember="1;0">
				<title>工作表.5</title>
				<v:userDefs>
					<v:ud v:nameU="visVersion" v:val="VT0(12):26"/>
				</v:userDefs>
				<path d="M0 827.72 L70.87 827.72" class="st15"/>
				<path d="M0 841.89 L70.87 841.89" class="st15"/>
			</g>
		</symbol>
	</defs>
	<defs id="Markers">
		<g id="lend4">
			<path d="M 2 1 L -0 0 L 2 -1 L 2 1 " style="stroke:none"/>
		</g>
		<marker id="mrkr4-53" class="st9" v:arrowType="4" v:arrowSize="2" v:setback="3.23529" refX="-3.2352941176471" orient="auto"
				markerUnits="strokeWidth">
			<use xlink:href="#lend4" transform="scale(-1.6176470588235,-1.6176470588235) "/>
		</marker>
	</defs>
	<g v:mID="0" v:index="1" v:groupContext="foregroundPage">
		<title>页-1</title>
		<v:pageProperties v:drawingScale="0.0393701" v:pageScale="0.0393701" v:drawingUnits="24" v:shadowOffsetX="8.50394"
				v:shadowOffsetY="-8.50394"/>
		<v:layer v:name="流程图" v:index="0"/>
		<v:layer v:name="连接线" v:index="1"/>
		<g id="shape9-1" v:mID="9" v:groupContext="shape" v:layerMember="0" transform="translate(18.4252,-514.488)">
			<title>流程.9</title>
			<v:custProps>
				<v:cp v:nameU="Cost" v:lbl="成本" v:type="7" v:format="@" v:langID="2052"/>
				<v:cp v:nameU="Duration" v:lbl="持续时间" v:type="2" v:langID="2052"/>
				<v:cp v:nameU="Resources" v:lbl="资源" v:langID="2052"/>
			</v:custProps>
			<v:userDefs>
				<v:ud v:nameU="visVersion" v:val="VT0(12):26"/>
			</v:userDefs>
			<rect x="0" y="708.661" width="119.055" height="133.228" rx="8.50394" ry="8.50394" class="st1"/>
		</g>
		<g id="shape8-3" v:mID="8" v:groupContext="shape" v:layerMember="0" transform="translate(16.2992,-673.228)">
			<title>流程</title>
			<v:custProps>
				<v:cp v:nameU="Cost" v:lbl="成本" v:type="7" v:format="@" v:langID="2052"/>
				<v:cp v:nameU="Duration" v:lbl="持续时间" v:type="2" v:langID="2052"/>
				<v:cp v:nameU="Resources" v:lbl="资源" v:langID="2052"/>
			</v:custProps>
			<v:userDefs>
				<v:ud v:nameU="visVersion" v:val="VT0(12):26"/>
			</v:userDefs>
			<rect x="0" y="708.661" width="119.055" height="133.228" rx="8.50394" ry="8.50394" class="st1"/>
		</g>
		<g id="shape4-5" v:mID="4" v:groupContext="shape" v:layerMember="0" transform="translate(-766.063,123.307) rotate(-90)">
			<title>直接数据.4</title>
			<v:custProps>
				<v:cp v:nameU="Cost" v:lbl="成本" v:type="7" v:format="@" v:langID="2052"/>
				<v:cp v:nameU="Duration" v:lbl="持续时间" v:type="2" v:langID="2052"/>
				<v:cp v:nameU="Resources" v:lbl="资源" v:langID="2052"/>
			</v:custProps>
			<v:userDefs>
				<v:ud v:nameU="visVersion" v:val="VT0(12):26"/>
			</v:userDefs>
			<path d="M5.31 799.37 L70.87 799.37 A45.1772 45.1772 0 0 1 70.87 841.89 L5.31 841.89 A45.1772 45.1772 0 0 1 5.31 799.37
						 Z" class="st2"/>
			<path d="M5.31 799.37 L70.87 799.37 A45.1772 45.1772 0 0 1 70.87 841.89 L5.31 841.89 A45.1772 45.1772 0 0 1 5.31 799.37"
					class="st3"/>
			<path d="M70.87 799.37 A45.1772 45.1772 -180 0 0 70.87 841.89" class="st3"/>
		</g>
		<g id="shape5-9" v:mID="5" v:groupContext="shape" v:layerMember="0" transform="translate(-744.803,137.48) rotate(-90)">
			<title>直接数据.5</title>
			<v:custProps>
				<v:cp v:nameU="Cost" v:lbl="成本" v:type="7" v:format="@" v:langID="2052"/>
				<v:cp v:nameU="Duration" v:lbl="持续时间" v:type="2" v:langID="2052"/>
				<v:cp v:nameU="Resources" v:lbl="资源" v:langID="2052"/>
			</v:custProps>
			<v:userDefs>
				<v:ud v:nameU="visVersion" v:val="VT0(12):26"/>
			</v:userDefs>
			<path d="M5.31 799.37 L70.87 799.37 A45.1772 45.1772 0 0 1 70.87 841.89 L5.31 841.89 A45.1772 45.1772 0 0 1 5.31 799.37
						 Z" class="st2"/>
			<path d="M5.31 799.37 L70.87 799.37 A45.1772 45.1772 0 0 1 70.87 841.89 L5.31 841.89 A45.1772 45.1772 0 0 1 5.31 799.37"
					class="st3"/>
			<path d="M70.87 799.37 A45.1772 45.1772 -180 0 0 70.87 841.89" class="st3"/>
		</g>
		<g id="shape3-13" v:mID="3" v:groupContext="shape" v:layerMember="0" transform="translate(-723.543,158.74) rotate(-90)">
			<title>直接数据.3</title>
			<v:custProps>
				<v:cp v:nameU="Cost" v:lbl="成本" v:type="7" v:format="@" v:langID="2052"/>
				<v:cp v:nameU="Duration" v:lbl="持续时间" v:type="2" v:langID="2052"/>
				<v:cp v:nameU="Resources" v:lbl="资源" v:langID="2052"/>
			</v:custProps>
			<v:userDefs>
				<v:ud v:nameU="visVersion" v:val="VT0(12):26"/>
			</v:userDefs>
			<g id="shadow3-14" v:groupContext="shadow" v:shadowOffsetX="0" v:shadowOffsetY="0"
					transform="matrix(1,0,0,1,-8.50394,8.50394)" class="st4">
				<path d="M5.31 799.37 L70.87 799.37 A45.1772 45.1772 0 0 1 70.87 841.89 L5.31 841.89 A45.1772 45.1772 0 0 1 5.31
							 799.37 Z" class="st2"/>
				<path d="M5.31 799.37 L70.87 799.37 A45.1772 45.1772 0 0 1 70.87 841.89 L5.31 841.89 A45.1772 45.1772 0 0 1 5.31
							 799.37" class="st5"/>
				<path d="M70.87 799.37 A45.1772 45.1772 -180 0 0 70.87 841.89" class="st5"/>
			</g>
			<path d="M5.31 799.37 L70.87 799.37 A45.1772 45.1772 0 0 1 70.87 841.89 L5.31 841.89 A45.1772 45.1772 0 0 1 5.31 799.37
						 Z" class="st6"/>
			<path d="M5.31 799.37 L70.87 799.37 A45.1772 45.1772 0 0 1 70.87 841.89 L5.31 841.89 A45.1772 45.1772 0 0 1 5.31 799.37"
					class="st3"/>
			<path d="M70.87 799.37 A45.1772 45.1772 -180 0 0 70.87 841.89" class="st3"/>
		</g>
		<g id="shape1-21" v:mID="1" v:groupContext="shape" v:layerMember="0" transform="translate(-763.937,282.047) rotate(-90)">
			<title>直接数据.1</title>
			<v:custProps>
				<v:cp v:nameU="Cost" v:lbl="成本" v:type="7" v:format="@" v:langID="2052"/>
				<v:cp v:nameU="Duration" v:lbl="持续时间" v:type="2" v:langID="2052"/>
				<v:cp v:nameU="Resources" v:lbl="资源" v:langID="2052"/>
			</v:custProps>
			<v:userDefs>
				<v:ud v:nameU="visVersion" v:val="VT0(12):26"/>
			</v:userDefs>
			<path d="M5.31 799.37 L70.87 799.37 A45.1772 45.1772 0 0 1 70.87 841.89 L5.31 841.89 A45.1772 45.1772 0 0 1 5.31 799.37
						 Z" class="st2"/>
			<path d="M5.31 799.37 L70.87 799.37 A45.1772 45.1772 0 0 1 70.87 841.89 L5.31 841.89 A45.1772 45.1772 0 0 1 5.31 799.37"
					class="st3"/>
			<path d="M70.87 799.37 A45.1772 45.1772 -180 0 0 70.87 841.89" class="st3"/>
		</g>
		<g id="shape2-25" v:mID="2" v:groupContext="shape" v:layerMember="0" transform="translate(-742.677,296.22) rotate(-90)">
			<title>直接数据.2</title>
			<v:custProps>
				<v:cp v:nameU="Cost" v:lbl="成本" v:type="7" v:format="@" v:langID="2052"/>
				<v:cp v:nameU="Duration" v:lbl="持续时间" v:type="2" v:langID="2052"/>
				<v:cp v:nameU="Resources" v:lbl="资源" v:langID="2052"/>
			</v:custProps>
			<v:userDefs>
				<v:ud v:nameU="visVersion" v:val="VT0(12):26"/>
			</v:userDefs>
			<path d="M5.31 799.37 L70.87 799.37 A45.1772 45.1772 0 0 1 70.87 841.89 L5.31 841.89 A45.1772 45.1772 0 0 1 5.31 799.37
						 Z" class="st2"/>
			<path d="M5.31 799.37 L70.87 799.37 A45.1772 45.1772 0 0 1 70.87 841.89 L5.31 841.89 A45.1772 45.1772 0 0 1 5.31 799.37"
					class="st3"/>
			<path d="M70.87 799.37 A45.1772 45.1772 -180 0 0 70.87 841.89" class="st3"/>
		</g>
		<g id="shape6-29" v:mID="6" v:groupContext="shape" v:layerMember="0" transform="translate(-721.417,317.48) rotate(-90)">
			<title>直接数据.6</title>
			<v:custProps>
				<v:cp v:nameU="Cost" v:lbl="成本" v:type="7" v:format="@" v:langID="2052"/>
				<v:cp v:nameU="Duration" v:lbl="持续时间" v:type="2" v:langID="2052"/>
				<v:cp v:nameU="Resources" v:lbl="资源" v:langID="2052"/>
			</v:custProps>
			<v:userDefs>
				<v:ud v:nameU="visVersion" v:val="VT0(12):26"/>
			</v:userDefs>
			<g id="shadow6-30" v:groupContext="shadow" v:shadowOffsetX="0" v:shadowOffsetY="0"
					transform="matrix(1,0,0,1,-8.50394,8.50394)" class="st4">
				<path d="M5.31 799.37 L70.87 799.37 A45.1772 45.1772 0 0 1 70.87 841.89 L5.31 841.89 A45.1772 45.1772 0 0 1 5.31
							 799.37 Z" class="st2"/>
				<path d="M5.31 799.37 L70.87 799.37 A45.1772 45.1772 0 0 1 70.87 841.89 L5.31 841.89 A45.1772 45.1772 0 0 1 5.31
							 799.37" class="st5"/>
				<path d="M70.87 799.37 A45.1772 45.1772 -180 0 0 70.87 841.89" class="st5"/>
			</g>
			<path d="M5.31 799.37 L70.87 799.37 A45.1772 45.1772 0 0 1 70.87 841.89 L5.31 841.89 A45.1772 45.1772 0 0 1 5.31 799.37
						 Z" class="st6"/>
			<path d="M5.31 799.37 L70.87 799.37 A45.1772 45.1772 0 0 1 70.87 841.89 L5.31 841.89 A45.1772 45.1772 0 0 1 5.31 799.37"
					class="st3"/>
			<path d="M70.87 799.37 A45.1772 45.1772 -180 0 0 70.87 841.89" class="st3"/>
		</g>
		<g id="shape7-37" v:mID="7" v:groupContext="shape" v:layerMember="0" transform="translate(-558.425,374.61) rotate(-90)">
			<title>直接数据.7</title>
			<v:custProps>
				<v:cp v:nameU="Cost" v:lbl="成本" v:type="7" v:format="@" v:langID="2052"/>
				<v:cp v:nameU="Duration" v:lbl="持续时间" v:type="2" v:langID="2052"/>
				<v:cp v:nameU="Resources" v:lbl="资源" v:langID="2052"/>
			</v:custProps>
			<v:userDefs>
				<v:ud v:nameU="visVersion" v:val="VT0(12):26"/>
			</v:userDefs>
			<g id="shadow7-38" v:groupContext="shadow" v:shadowOffsetX="0" v:shadowOffsetY="0"
					transform="matrix(1,0,0,1,-8.50394,8.50394)" class="st4">
				<path d="M5.31 799.37 L70.87 799.37 A45.1772 45.1772 0 0 1 70.87 841.89 L5.31 841.89 A45.1772 45.1772 0 0 1 5.31
							 799.37 Z" class="st2"/>
				<path d="M5.31 799.37 L70.87 799.37 A45.1772 45.1772 0 0 1 70.87 841.89 L5.31 841.89 A45.1772 45.1772 0 0 1 5.31
							 799.37" class="st5"/>
				<path d="M70.87 799.37 A45.1772 45.1772 -180 0 0 70.87 841.89" class="st5"/>
			</g>
			<path d="M5.31 799.37 L70.87 799.37 A45.1772 45.1772 0 0 1 70.87 841.89 L5.31 841.89 A45.1772 45.1772 0 0 1 5.31 799.37
						 Z" class="st6"/>
			<path d="M5.31 799.37 L70.87 799.37 A45.1772 45.1772 0 0 1 70.87 841.89 L5.31 841.89 A45.1772 45.1772 0 0 1 5.31 799.37"
					class="st3"/>
			<path d="M70.87 799.37 A45.1772 45.1772 -180 0 0 70.87 841.89" class="st3"/>
		</g>
		<g id="shape10-45" v:mID="10" v:groupContext="shape" v:layerMember="0" transform="translate(226.772,-637.795)">
			<title>流程.10</title>
			<desc>SLS</desc>
			<v:custProps>
				<v:cp v:nameU="Cost" v:lbl="成本" v:type="7" v:format="@" v:langID="2052"/>
				<v:cp v:nameU="Duration" v:lbl="持续时间" v:type="2" v:langID="2052"/>
				<v:cp v:nameU="Resources" v:lbl="资源" v:langID="2052"/>
			</v:custProps>
			<v:userDefs>
				<v:ud v:nameU="visVersion" v:val="VT0(12):26"/>
			</v:userDefs>
			<v:textBlock v:margins="rect(2,2,2,2)" v:tabSpace="42.5197"/>
			<v:textRect cx="35.4331" cy="820.63" width="70.87" height="42.5197"/>
			<rect x="0" y="799.37" width="70.8661" height="42.5197" rx="8.50394" ry="8.50394" class="st1"/>
			<text x="29.43" y="823.03" class="st7" v:langID="2052"><v:paragraph v:horizAlign="1"/><v:tabList/>SLS</text>		</g>
		<g id="shape11-48" v:mID="11" v:groupContext="shape" v:layerMember="1" transform="translate(149.528,-733.465)">
			<title>动态连接线</title>
			<path d="M0 841.89 L46.98 878.43" class="st8"/>
		</g>
		<g id="shape12-54" v:mID="12" v:groupContext="shape" v:layerMember="1" transform="translate(256.535,-558.425)">
			<title>动态连接线.12</title>
			<path d="M7.09 841.89 L7.09 784.22" class="st8"/>
		</g>
		<g id="shape16-59" v:mID="16" v:groupContext="shape" v:layerMember="0" transform="translate(-416.693,226.772) rotate(-90)">
			<title>直接数据.16</title>
			<v:custProps>
				<v:cp v:nameU="Cost" v:lbl="成本" v:type="7" v:format="@" v:langID="2052"/>
				<v:cp v:nameU="Duration" v:lbl="持续时间" v:type="2" v:langID="2052"/>
				<v:cp v:nameU="Resources" v:lbl="资源" v:langID="2052"/>
			</v:custProps>
			<v:userDefs>
				<v:ud v:nameU="visVersion" v:val="VT0(12):26"/>
			</v:userDefs>
			<g id="shadow16-60" v:groupContext="shadow" v:shadowOffsetX="0" v:shadowOffsetY="0"
					transform="matrix(1,0,0,1,-8.50394,8.50394)" class="st4">
				<path d="M6.2 792.28 L70.87 792.28 A52.7067 52.7067 0 0 1 70.87 841.89 L6.2 841.89 A52.7067 52.7067 0 0 1 6.2 792.28
							 Z" class="st2"/>
				<path d="M6.2 792.28 L70.87 792.28 A52.7067 52.7067 0 0 1 70.87 841.89 L6.2 841.89 A52.7067 52.7067 0 0 1 6.2 792.28"
						class="st5"/>
				<path d="M70.87 792.28 A52.7067 52.7067 -180 0 0 70.87 841.89" class="st5"/>
			</g>
			<path d="M6.2 792.28 L70.87 792.28 A52.7067 52.7067 0 0 1 70.87 841.89 L6.2 841.89 A52.7067 52.7067 0 0 1 6.2 792.28 Z"
					class="st6"/>
			<path d="M6.2 792.28 L70.87 792.28 A52.7067 52.7067 0 0 1 70.87 841.89 L6.2 841.89 A52.7067 52.7067 0 0 1 6.2 792.28"
					class="st3"/>
			<path d="M70.87 792.28 A52.7067 52.7067 -180 0 0 70.87 841.89" class="st3"/>
		</g>
		<g id="shape17-67" v:mID="17" v:groupContext="shape" v:layerMember="1" transform="translate(310.394,-651.614)">
			<title>动态连接线.17</title>
			<path d="M0 835.16 L44.91 834.61" class="st8"/>
		</g>
		<g id="shape18-72" v:mID="18" v:groupContext="shape" transform="translate(350.394,-648.472)">
			<title>工作表.18</title>
			<desc>归档数据库</desc>
			<v:textBlock v:margins="rect(2,2,2,2)" v:tabSpace="42.5197"/>
			<v:textRect cx="50" cy="836.598" width="100.01" height="10.5827"/>
			<rect x="0" y="831.307" width="100" height="10.5827" class="st10"/>
			<text x="29.92" y="834.2" class="st11" v:langID="2052"><v:paragraph v:horizAlign="1"/><v:tabList/>归档数据库<v:newlineChar/></text>		</g>
		<g id="shape22-75" v:mID="22" v:groupContext="shape" v:layerMember="0" transform="translate(-100.157,225.791) rotate(-90)">
			<title>直接数据.22</title>
			<v:custProps>
				<v:cp v:nameU="Cost" v:lbl="成本" v:type="7" v:format="@" v:langID="2052"/>
				<v:cp v:nameU="Duration" v:lbl="持续时间" v:type="2" v:langID="2052"/>
				<v:cp v:nameU="Resources" v:lbl="资源" v:langID="2052"/>
			</v:custProps>
			<v:userDefs>
				<v:ud v:nameU="visVersion" v:val="VT0(12):26"/>
			</v:userDefs>
			<g id="shadow22-76" v:groupContext="shadow" v:shadowOffsetX="0" v:shadowOffsetY="0"
					transform="matrix(1,0,0,1,-8.50394,8.50394)" class="st4">
				<path d="M6.2 792.28 L70.87 792.28 A52.7067 52.7067 0 0 1 70.87 841.89 L6.2 841.89 A52.7067 52.7067 0 0 1 6.2 792.28
							 Z" class="st2"/>
				<path d="M6.2 792.28 L70.87 792.28 A52.7067 52.7067 0 0 1 70.87 841.89 L6.2 841.89 A52.7067 52.7067 0 0 1 6.2 792.28"
						class="st5"/>
				<path d="M70.87 792.28 A52.7067 52.7067 -180 0 0 70.87 841.89" class="st5"/>
			</g>
			<path d="M6.2 792.28 L70.87 792.28 A52.7067 52.7067 0 0 1 70.87 841.89 L6.2 841.89 A52.7067 52.7067 0 0 1 6.2 792.28 Z"
					class="st6"/>
			<path d="M6.2 792.28 L70.87 792.28 A52.7067 52.7067 0 0 1 70.87 841.89 L6.2 841.89 A52.7067 52.7067 0 0 1 6.2 792.28"
					class="st3"/>
			<path d="M70.87 792.28 A52.7067 52.7067 -180 0 0 70.87 841.89" class="st3"/>
		</g>
		<g id="shape23-83" v:mID="23" v:groupContext="shape" v:layerMember="1" transform="translate(598.819,-659.545)">
			<title>动态连接线.23</title>
			<path d="M0 848.76 L55.3 849.11" class="st8"/>
		</g>
		<g id="shape24-88" v:mID="24" v:groupContext="shape" transform="translate(666.929,-645.531)">
			<title>工作表.24</title>
			<desc>数据集市</desc>
			<v:textBlock v:margins="rect(2,2,2,2)" v:tabSpace="42.5197"/>
			<v:textRect cx="50" cy="835.89" width="100.01" height="12"/>
			<rect x="0" y="829.89" width="100" height="12" class="st10"/>
			<text x="33.94" y="838.29" class="st11" v:langID="2052"><v:paragraph v:horizAlign="1"/><v:tabList/>数据集市</text>		</g>
		<g id="shape25-91" v:mID="25" v:groupContext="shape" v:layerMember="0" transform="translate(-98.0315,339.177) rotate(-90)">
			<title>直接数据.25</title>
			<v:custProps>
				<v:cp v:nameU="Cost" v:lbl="成本" v:type="7" v:format="@" v:langID="2052"/>
				<v:cp v:nameU="Duration" v:lbl="持续时间" v:type="2" v:langID="2052"/>
				<v:cp v:nameU="Resources" v:lbl="资源" v:langID="2052"/>
			</v:custProps>
			<v:userDefs>
				<v:ud v:nameU="visVersion" v:val="VT0(12):26"/>
			</v:userDefs>
			<g id="shadow25-92" v:groupContext="shadow" v:shadowOffsetX="0" v:shadowOffsetY="0"
					transform="matrix(1,0,0,1,-8.50394,8.50394)" class="st4">
				<path d="M6.2 792.28 L70.87 792.28 A52.7067 52.7067 0 0 1 70.87 841.89 L6.2 841.89 A52.7067 52.7067 0 0 1 6.2 792.28
							 Z" class="st2"/>
				<path d="M6.2 792.28 L70.87 792.28 A52.7067 52.7067 0 0 1 70.87 841.89 L6.2 841.89 A52.7067 52.7067 0 0 1 6.2 792.28"
						class="st5"/>
				<path d="M70.87 792.28 A52.7067 52.7067 -180 0 0 70.87 841.89" class="st5"/>
			</g>
			<path d="M6.2 792.28 L70.87 792.28 A52.7067 52.7067 0 0 1 70.87 841.89 L6.2 841.89 A52.7067 52.7067 0 0 1 6.2 792.28 Z"
					class="st6"/>
			<path d="M6.2 792.28 L70.87 792.28 A52.7067 52.7067 0 0 1 70.87 841.89 L6.2 841.89 A52.7067 52.7067 0 0 1 6.2 792.28"
					class="st3"/>
			<path d="M70.87 792.28 A52.7067 52.7067 -180 0 0 70.87 841.89" class="st3"/>
		</g>
		<g id="shape26-99" v:mID="26" v:groupContext="shape" transform="translate(663.386,-532.146)">
			<title>工作表.26</title>
			<desc>数据集市</desc>
			<v:textBlock v:margins="rect(2,2,2,2)" v:tabSpace="42.5197"/>
			<v:textRect cx="50" cy="835.89" width="100.01" height="12"/>
			<rect x="0" y="829.89" width="100" height="12" class="st10"/>
			<text x="33.94" y="838.29" class="st11" v:langID="2052"><v:paragraph v:horizAlign="1"/><v:tabList/>数据集市</text>		</g>
		<g id="shape27-102" v:mID="27" v:groupContext="shape" v:layerMember="0" transform="translate(-97.7953,111.531) rotate(-90)">
			<title>直接数据.27</title>
			<v:custProps>
				<v:cp v:nameU="Cost" v:lbl="成本" v:type="7" v:format="@" v:langID="2052"/>
				<v:cp v:nameU="Duration" v:lbl="持续时间" v:type="2" v:langID="2052"/>
				<v:cp v:nameU="Resources" v:lbl="资源" v:langID="2052"/>
			</v:custProps>
			<v:userDefs>
				<v:ud v:nameU="visVersion" v:val="VT0(12):26"/>
			</v:userDefs>
			<g id="shadow27-103" v:groupContext="shadow" v:shadowOffsetX="0" v:shadowOffsetY="0"
					transform="matrix(1,0,0,1,-8.50394,8.50394)" class="st4">
				<path d="M6.2 792.28 L70.87 792.28 A52.7067 52.7067 0 0 1 70.87 841.89 L6.2 841.89 A52.7067 52.7067 0 0 1 6.2 792.28
							 Z" class="st2"/>
				<path d="M6.2 792.28 L70.87 792.28 A52.7067 52.7067 0 0 1 70.87 841.89 L6.2 841.89 A52.7067 52.7067 0 0 1 6.2 792.28"
						class="st5"/>
				<path d="M70.87 792.28 A52.7067 52.7067 -180 0 0 70.87 841.89" class="st5"/>
			</g>
			<path d="M6.2 792.28 L70.87 792.28 A52.7067 52.7067 0 0 1 70.87 841.89 L6.2 841.89 A52.7067 52.7067 0 0 1 6.2 792.28 Z"
					class="st6"/>
			<path d="M6.2 792.28 L70.87 792.28 A52.7067 52.7067 0 0 1 70.87 841.89 L6.2 841.89 A52.7067 52.7067 0 0 1 6.2 792.28"
					class="st3"/>
			<path d="M70.87 792.28 A52.7067 52.7067 -180 0 0 70.87 841.89" class="st3"/>
		</g>
		<g id="shape28-110" v:mID="28" v:groupContext="shape" transform="translate(666.929,-761.752)">
			<title>工作表.28</title>
			<desc>数据集市</desc>
			<v:textBlock v:margins="rect(2,2,2,2)" v:tabSpace="42.5197"/>
			<v:textRect cx="50" cy="835.89" width="100.01" height="12"/>
			<rect x="0" y="829.89" width="100" height="12" class="st10"/>
			<text x="33.94" y="838.29" class="st11" v:langID="2052"><v:paragraph v:horizAlign="1"/><v:tabList/>数据集市</text>		</g>
		<g id="shape29-113" v:mID="29" v:groupContext="shape" v:layerMember="1" transform="translate(595.276,-708.661)">
			<title>动态连接线.29</title>
			<path d="M0 841.89 L53.34 813.15" class="st8"/>
		</g>
		<g id="shape30-118" v:mID="30" v:groupContext="shape" v:layerMember="1" transform="translate(595.276,-581.102)">
			<title>动态连接线.30</title>
			<path d="M0 841.89 L56.51 872.55" class="st8"/>
		</g>
		<g id="shape31-123" v:mID="31" v:groupContext="shape" v:layerMember="0" transform="translate(64.8031,225.791) rotate(-90)">
			<title>直接数据.31</title>
			<v:custProps>
				<v:cp v:nameU="Cost" v:lbl="成本" v:type="7" v:format="@" v:langID="2052"/>
				<v:cp v:nameU="Duration" v:lbl="持续时间" v:type="2" v:langID="2052"/>
				<v:cp v:nameU="Resources" v:lbl="资源" v:langID="2052"/>
			</v:custProps>
			<v:userDefs>
				<v:ud v:nameU="visVersion" v:val="VT0(12):26"/>
			</v:userDefs>
			<g id="shadow31-124" v:groupContext="shadow" v:shadowOffsetX="0" v:shadowOffsetY="0"
					transform="matrix(1,0,0,1,-8.50394,8.50394)" class="st4">
				<path d="M6.2 792.28 L70.87 792.28 A52.7067 52.7067 0 0 1 70.87 841.89 L6.2 841.89 A52.7067 52.7067 0 0 1 6.2 792.28
							 Z" class="st2"/>
				<path d="M6.2 792.28 L70.87 792.28 A52.7067 52.7067 0 0 1 70.87 841.89 L6.2 841.89 A52.7067 52.7067 0 0 1 6.2 792.28"
						class="st5"/>
				<path d="M70.87 792.28 A52.7067 52.7067 -180 0 0 70.87 841.89" class="st5"/>
			</g>
			<path d="M6.2 792.28 L70.87 792.28 A52.7067 52.7067 0 0 1 70.87 841.89 L6.2 841.89 A52.7067 52.7067 0 0 1 6.2 792.28 Z"
					class="st6"/>
			<path d="M6.2 792.28 L70.87 792.28 A52.7067 52.7067 0 0 1 70.87 841.89 L6.2 841.89 A52.7067 52.7067 0 0 1 6.2 792.28"
					class="st3"/>
			<path d="M70.87 792.28 A52.7067 52.7067 -180 0 0 70.87 841.89" class="st3"/>
		</g>
		<g id="shape32-131" v:mID="32" v:groupContext="shape" v:layerMember="1" transform="translate(766.929,-646.217)">
			<title>动态连接线.32</title>
			<path d="M0 835.16 L61.21 834.57" class="st8"/>
		</g>
		<g id="shape33-136" v:mID="33" v:groupContext="shape" transform="translate(831.89,-639.531)">
			<title>工作表.33</title>
			<desc>数据汇总报表</desc>
			<v:textBlock v:margins="rect(2,2,2,2)" v:tabSpace="42.5197"/>
			<v:textRect cx="50" cy="835.89" width="100.01" height="12"/>
			<rect x="0" y="829.89" width="100" height="12" class="st10"/>
			<text x="25.91" y="833.49" class="st11" v:langID="2052"><v:paragraph v:horizAlign="1"/><v:tabList/>数据汇总报表<v:newlineChar/></text>		</g>
		<g id="shape34-139" v:mID="34" v:groupContext="shape" v:layerMember="0" transform="translate(210.079,225.791) rotate(-90)">
			<title>直接数据.34</title>
			<v:custProps>
				<v:cp v:nameU="Cost" v:lbl="成本" v:type="7" v:format="@" v:langID="2052"/>
				<v:cp v:nameU="Duration" v:lbl="持续时间" v:type="2" v:langID="2052"/>
				<v:cp v:nameU="Resources" v:lbl="资源" v:langID="2052"/>
			</v:custProps>
			<v:userDefs>
				<v:ud v:nameU="visVersion" v:val="VT0(12):26"/>
			</v:userDefs>
			<g id="shadow34-140" v:groupContext="shadow" v:shadowOffsetX="0" v:shadowOffsetY="0"
					transform="matrix(1,0,0,1,-8.50394,8.50394)" class="st4">
				<path d="M6.2 792.28 L70.87 792.28 A52.7067 52.7067 0 0 1 70.87 841.89 L6.2 841.89 A52.7067 52.7067 0 0 1 6.2 792.28
							 Z" class="st2"/>
				<path d="M6.2 792.28 L70.87 792.28 A52.7067 52.7067 0 0 1 70.87 841.89 L6.2 841.89 A52.7067 52.7067 0 0 1 6.2 792.28"
						class="st5"/>
				<path d="M70.87 792.28 A52.7067 52.7067 -180 0 0 70.87 841.89" class="st5"/>
			</g>
			<path d="M6.2 792.28 L70.87 792.28 A52.7067 52.7067 0 0 1 70.87 841.89 L6.2 841.89 A52.7067 52.7067 0 0 1 6.2 792.28 Z"
					class="st6"/>
			<path d="M6.2 792.28 L70.87 792.28 A52.7067 52.7067 0 0 1 70.87 841.89 L6.2 841.89 A52.7067 52.7067 0 0 1 6.2 792.28"
					class="st3"/>
			<path d="M70.87 792.28 A52.7067 52.7067 -180 0 0 70.87 841.89" class="st3"/>
		</g>
		<g id="shape35-147" v:mID="35" v:groupContext="shape" v:layerMember="1" transform="translate(927.953,-644.091)">
			<title>动态连接线.35</title>
			<path d="M0 835.16 L61.21 834.57" class="st8"/>
		</g>
		<g id="shape36-152" v:mID="36" v:groupContext="shape" transform="translate(977.165,-645.531)">
			<title>工作表.36</title>
			<desc>MySQL报表</desc>
			<v:textBlock v:margins="rect(2,2,2,2)" v:tabSpace="42.5197"/>
			<v:textRect cx="50" cy="835.89" width="100.01" height="12"/>
			<rect x="0" y="829.89" width="100" height="12" class="st10"/>
			<text x="31.89" y="838.29" class="st11" v:langID="2052"><v:paragraph v:horizAlign="1"/><v:tabList/>MySQL报表</text>		</g>
		<g id="shape37-155" v:mID="37" v:groupContext="shape" v:layerMember="0" transform="translate(-267.874,226.063) rotate(-90)">
			<title>直接数据.37</title>
			<v:custProps>
				<v:cp v:nameU="Cost" v:lbl="成本" v:type="7" v:format="@" v:langID="2052"/>
				<v:cp v:nameU="Duration" v:lbl="持续时间" v:type="2" v:langID="2052"/>
				<v:cp v:nameU="Resources" v:lbl="资源" v:langID="2052"/>
			</v:custProps>
			<v:userDefs>
				<v:ud v:nameU="visVersion" v:val="VT0(12):26"/>
			</v:userDefs>
			<g id="shadow37-156" v:groupContext="shadow" v:shadowOffsetX="0" v:shadowOffsetY="0"
					transform="matrix(1,0,0,1,-8.50394,8.50394)" class="st4">
				<path d="M6.2 792.28 L70.87 792.28 A52.7067 52.7067 0 0 1 70.87 841.89 L6.2 841.89 A52.7067 52.7067 0 0 1 6.2 792.28
							 Z" class="st2"/>
				<path d="M6.2 792.28 L70.87 792.28 A52.7067 52.7067 0 0 1 70.87 841.89 L6.2 841.89 A52.7067 52.7067 0 0 1 6.2 792.28"
						class="st5"/>
				<path d="M70.87 792.28 A52.7067 52.7067 -180 0 0 70.87 841.89" class="st5"/>
			</g>
			<path d="M6.2 792.28 L70.87 792.28 A52.7067 52.7067 0 0 1 70.87 841.89 L6.2 841.89 A52.7067 52.7067 0 0 1 6.2 792.28 Z"
					class="st6"/>
			<path d="M6.2 792.28 L70.87 792.28 A52.7067 52.7067 0 0 1 70.87 841.89 L6.2 841.89 A52.7067 52.7067 0 0 1 6.2 792.28"
					class="st3"/>
			<path d="M70.87 792.28 A52.7067 52.7067 -180 0 0 70.87 841.89" class="st3"/>
		</g>
		<g id="shape38-163" v:mID="38" v:groupContext="shape" v:layerMember="1" transform="translate(450.394,-645.236)">
			<title>动态连接线.38</title>
			<path d="M0 835.16 L47.35 834.6" class="st8"/>
		</g>
		<g id="shape39-168" v:mID="39" v:groupContext="shape" transform="translate(499.606,-647.717)">
			<title>工作表.39</title>
			<desc>数据仓库 JSON化数据</desc>
			<v:textBlock v:margins="rect(2,2,2,2)" v:tabSpace="42.5197"/>
			<v:textRect cx="49.6063" cy="830.551" width="99.22" height="22.6772"/>
			<rect x="0" y="819.213" width="99.2126" height="22.6772" class="st10"/>
			<text x="33.54" y="828.15" class="st11" v:langID="2052"><v:paragraph v:horizAlign="1"/><v:tabList/>数据仓库<v:newlineChar/><tspan
						x="29.5" dy="1.2em" class="st12">JSON</tspan>化数据</text>		</g>
		<g id="shape40-172" v:mID="40" v:groupContext="shape" v:layerMember="1" transform="translate(147.402,-586.772)">
			<title>动态连接线.40</title>
			<path d="M0 841.89 L46.64 802.25" class="st8"/>
		</g>
		<g id="shape41-177" v:mID="41" v:groupContext="shape" v:layerMember="0" transform="translate(-338.74,374.61) rotate(-90)">
			<title>直接数据.41</title>
			<v:custProps>
				<v:cp v:nameU="Cost" v:lbl="成本" v:type="7" v:format="@" v:langID="2052"/>
				<v:cp v:nameU="Duration" v:lbl="持续时间" v:type="2" v:langID="2052"/>
				<v:cp v:nameU="Resources" v:lbl="资源" v:langID="2052"/>
			</v:custProps>
			<v:userDefs>
				<v:ud v:nameU="visVersion" v:val="VT0(12):26"/>
			</v:userDefs>
			<g id="shadow41-178" v:groupContext="shadow" v:shadowOffsetX="0" v:shadowOffsetY="0"
					transform="matrix(1,0,0,1,-8.50394,8.50394)" class="st4">
				<path d="M5.31 799.37 L70.87 799.37 A45.1772 45.1772 0 0 1 70.87 841.89 L5.31 841.89 A45.1772 45.1772 0 0 1 5.31
							 799.37 Z" class="st2"/>
				<path d="M5.31 799.37 L70.87 799.37 A45.1772 45.1772 0 0 1 70.87 841.89 L5.31 841.89 A45.1772 45.1772 0 0 1 5.31
							 799.37" class="st5"/>
				<path d="M70.87 799.37 A45.1772 45.1772 -180 0 0 70.87 841.89" class="st5"/>
			</g>
			<path d="M5.31 799.37 L70.87 799.37 A45.1772 45.1772 0 0 1 70.87 841.89 L5.31 841.89 A45.1772 45.1772 0 0 1 5.31 799.37
						 Z" class="st6"/>
			<path d="M5.31 799.37 L70.87 799.37 A45.1772 45.1772 0 0 1 70.87 841.89 L5.31 841.89 A45.1772 45.1772 0 0 1 5.31 799.37"
					class="st3"/>
			<path d="M70.87 799.37 A45.1772 45.1772 -180 0 0 70.87 841.89" class="st3"/>
		</g>
		<g id="shape42-185" v:mID="42" v:groupContext="shape" v:layerMember="1" transform="translate(474.803,-564.094)">
			<title>动态连接线.42</title>
			<path d="M7.09 841.89 L7.09 784.22" class="st8"/>
		</g>
		<g id="shape43-190" v:mID="43" v:groupContext="shape" v:layerMember="0" transform="translate(226.772,-389.764)">
			<title>流程.43</title>
			<desc>日志文件格式 提取数据所需正则归档位置</desc>
			<v:custProps>
				<v:cp v:nameU="Cost" v:lbl="成本" v:type="7" v:format="@" v:langID="2052"/>
				<v:cp v:nameU="Duration" v:lbl="持续时间" v:type="2" v:langID="2052"/>
				<v:cp v:nameU="Resources" v:lbl="资源" v:langID="2052"/>
			</v:custProps>
			<v:userDefs>
				<v:ud v:nameU="visVersion" v:val="VT0(12):26"/>
			</v:userDefs>
			<v:textBlock v:margins="rect(2,2,2,2)" v:tabSpace="42.5197"/>
			<v:textRect cx="35.4331" cy="820.63" width="70.87" height="42.5197"/>
			<rect x="0" y="799.37" width="70.8661" height="42.5197" rx="8.50394" ry="8.50394" class="st13"/>
			<text x="11.34" y="813.43" class="st11" v:langID="2052"><v:paragraph v:horizAlign="1"/><v:tabList/>日志文件格式<v:newlineChar/><tspan
						x="3.31" dy="1.2em" class="st12">提取数据所需正则</tspan><tspan x="19.37" dy="1.2em" class="st12">归档位置</tspan></text>		</g>
		<g id="shape13-195" v:mID="13" v:groupContext="shape" v:layerMember="0" transform="translate(446.457,-389.764)">
			<title>流程.13</title>
			<desc>整理归档仓库格式以及内容须记录转化正则</desc>
			<v:custProps>
				<v:cp v:nameU="Cost" v:lbl="成本" v:type="7" v:format="@" v:langID="2052"/>
				<v:cp v:nameU="Duration" v:lbl="持续时间" v:type="2" v:langID="2052"/>
				<v:cp v:nameU="Resources" v:lbl="资源" v:langID="2052"/>
			</v:custProps>
			<v:userDefs>
				<v:ud v:nameU="visVersion" v:val="VT0(12):26"/>
			</v:userDefs>
			<v:textBlock v:margins="rect(2,2,2,2)" v:tabSpace="42.5197"/>
			<v:textRect cx="35.4331" cy="820.63" width="70.87" height="42.5197"/>
			<rect x="0" y="799.37" width="70.8661" height="42.5197" rx="8.50394" ry="8.50394" class="st13"/>
			<text x="3.31" y="808.63" class="st11" v:langID="2052"><v:paragraph v:horizAlign="1"/><v:tabList/>整理归档仓库格式<tspan
						x="3.31" dy="1.2em" class="st12">以及内容</tspan>，须记录<tspan x="19.37" dy="1.2em" class="st12">转化正则</tspan><v:newlineChar/></text>		</g>
		<use id="shape14-200" v:mID="14" xlink:href="#master7" transform="translate(687.402,-704.409)">
			<title>并行模式</title>
		</use>
		<g id="shape15-205" v:mID="15" v:groupContext="shape" v:layerMember="1;0" transform="translate(687.402,-588.189)">
			<title>并行模式.15</title>
			<v:userDefs>
				<v:ud v:nameU="visVersion" v:val="VT0(12):26"/>
			</v:userDefs>
			<path d="M0 827.72 L70.87 827.72" class="st15"/>
			<path d="M0 841.89 L70.87 841.89" class="st15"/>
		</g>
	</g>
</svg>
